<svg width="610" height="550" viewBox="0 0 610 550" fill="none" xmlns="http://www.w3.org/2000/svg">
<path d="M256.003 431.168L142.557 478.114L96.4706 497.186C93.5812 493.372 82.0235 469.931 75.8835 462.302L119.225 441.079L227.108 388.363C239.569 382.69 260.806 389.308 267.091 400.556C270.104 405.944 270.628 412.191 268.55 417.929C266.472 423.666 261.96 428.427 256.003 431.168Z" fill="#FFC9B0"/>
<path d="M96.2899 500.479C95.7043 500.474 95.1289 500.341 94.6129 500.091C94.097 499.841 93.6561 499.482 93.3282 499.044C92.0641 497.414 89.9332 493.535 86.1047 486.851C82.0935 479.015 77.5832 471.396 72.5966 464.03C72.3095 463.647 72.1104 463.216 72.0111 462.763C71.9119 462.309 71.9144 461.842 72.0187 461.39C72.1367 460.941 72.3587 460.521 72.67 460.155C72.9813 459.79 73.3748 459.488 73.8246 459.27L225.194 385.331C233.216 382.149 242.311 381.973 250.477 384.842C258.809 387.075 265.878 392.103 270.233 398.893C271.942 401.955 272.965 405.292 273.243 408.712C273.521 412.132 273.05 415.568 271.856 418.823C270.661 422.078 268.768 425.089 266.283 427.683C263.798 430.276 260.771 432.403 257.375 433.939L97.8068 500.153C97.3379 500.371 96.8173 500.483 96.2899 500.479ZM80.8315 463.476C84.4432 468.855 88.9579 477.103 92.7142 483.95C94.6284 487.438 96.326 490.763 97.7707 493.013L254.233 428.201C259.306 425.862 263.154 421.814 264.945 416.933C266.736 412.052 266.326 406.731 263.804 402.12C260.29 396.875 254.721 393.011 248.201 391.297C241.934 389.011 234.928 389.011 228.661 391.297L80.8315 463.476Z" fill="#093F68"/>
<path d="M142.376 478.114L96.2899 497.186C93.4004 493.371 81.8428 469.931 75.7028 462.302L119.044 441.079L142.376 478.114Z" fill="#F56132"/>
<path d="M96.2898 500.479C95.7043 500.474 95.1289 500.341 94.6129 500.091C94.097 499.841 93.6561 499.482 93.3282 499.044C92.0641 497.414 89.9332 493.534 86.1047 486.851C82.0935 479.015 77.5832 471.396 72.5966 464.03C72.3095 463.647 72.1104 463.216 72.0111 462.763C71.9119 462.309 71.9144 461.842 72.0187 461.389C72.1367 460.941 72.3587 460.52 72.67 460.155C72.9813 459.79 73.3748 459.488 73.8246 459.27L117.166 438.047C118.001 437.638 118.98 437.541 119.893 437.779C120.806 438.017 121.578 438.57 122.042 439.318L125.654 444.828L145.41 476.354C145.655 476.747 145.808 477.181 145.858 477.63C145.907 478.079 145.853 478.533 145.699 478.962C145.542 479.392 145.288 479.788 144.952 480.125C144.616 480.462 144.206 480.732 143.749 480.918L97.6984 499.99C97.2779 500.25 96.7954 500.418 96.2898 500.479ZM80.8315 463.476C84.4432 468.855 88.9579 477.103 92.7142 483.95C94.6284 487.438 96.326 490.763 97.7707 493.013L137.284 476.712C131.794 467.91 125.437 457.803 119.441 448.251L117.744 445.545L80.8315 463.476Z" fill="#093F68"/>
<path d="M75.703 462.302L47.5672 473.843L96.7957 545.827C96.8995 546.252 97.1839 546.624 97.5878 546.861C97.9917 547.099 98.4828 547.185 98.9557 547.099C99.4286 547.014 99.8456 546.765 100.117 546.405C100.388 546.045 100.493 545.604 100.407 545.175L100.696 495.36L75.703 462.302Z" fill="#68E1FD"/>
<path d="M98.3486 550C97.4102 550.002 96.4874 549.783 95.6706 549.366C94.8539 548.949 94.1712 548.347 93.6894 547.62L44.4971 475.636C44.2285 475.246 44.0543 474.809 43.9859 474.354C43.9174 473.899 43.9562 473.436 44.0998 472.996C44.2476 472.553 44.4979 472.144 44.8342 471.796C45.1704 471.447 45.5849 471.167 46.0501 470.974L74.222 459.336C74.9977 459.019 75.8725 458.96 76.692 459.168C77.5114 459.377 78.2228 459.84 78.7006 460.477L103.766 493.404C104.195 493.958 104.422 494.619 104.416 495.295L103.839 545.208C103.856 545.338 103.856 545.469 103.839 545.599C103.702 546.618 103.213 547.573 102.442 548.328C101.671 549.083 100.655 549.6 99.5405 549.804L98.3486 550ZM52.8764 475.343L96.7956 539.568L97.0845 496.338L74.3665 466.41L52.8764 475.343Z" fill="#093F68"/>
<path d="M589.514 144.341C586.119 142.288 581.134 151.318 581.134 151.318C580.074 149.503 578.764 147.816 577.234 146.298C575.464 144.863 568.602 151.612 566.037 154.709C563.473 157.806 558.344 173.487 558.344 173.487L488.89 228.192L429.873 194.841C424.418 191.754 417.828 190.75 411.552 192.049C405.277 193.348 399.83 196.845 396.41 201.769C392.991 206.693 391.878 212.641 393.317 218.306C394.757 223.971 398.63 228.887 404.085 231.974L479.499 274.616C484.365 277.451 490.199 278.608 495.933 277.877C501.119 277.183 505.919 275 509.621 271.65L582.94 192.787C582.94 192.787 604.141 177.758 606.092 167.228C608.042 156.697 592.909 146.428 589.514 144.341Z" fill="#FFC9B0"/>
<path d="M492.429 281.234C487.189 281.244 482.054 279.91 477.621 277.388L402.207 234.745C399.103 232.992 396.412 230.704 394.287 228.012C392.162 225.32 390.646 222.276 389.824 219.055C389.002 215.834 388.891 212.499 389.498 209.239C390.104 205.979 391.416 202.859 393.358 200.057C395.301 197.255 397.835 194.826 400.818 192.908C403.8 190.99 407.172 189.621 410.74 188.879C414.309 188.138 418.004 188.038 421.616 188.585C425.227 189.133 428.683 190.317 431.788 192.07L488.529 224.15L555.202 171.629C556.538 167.586 560.584 155.882 563.148 152.785C563.148 152.785 570.949 143.331 576.114 143.005C576.761 142.94 577.415 142.996 578.037 143.17C578.658 143.344 579.233 143.632 579.726 144.015C580.231 144.441 580.702 144.898 581.135 145.385C582.527 143.439 584.58 141.952 586.986 141.146C587.763 140.95 588.578 140.906 589.376 141.019C590.173 141.131 590.935 141.397 591.609 141.799C593.704 143.103 612.232 154.839 609.668 167.88C607.609 178.899 588.828 192.82 585.469 195.232L512.439 273.606C508.177 277.565 502.594 280.153 496.547 280.974C495.182 281.143 493.807 281.23 492.429 281.234ZM417.016 194.776C413.514 194.77 410.069 195.569 407.004 197.098C403.94 198.626 401.356 200.834 399.498 203.513C398.056 205.586 397.08 207.896 396.628 210.31C396.175 212.725 396.255 215.196 396.862 217.582C397.47 219.968 398.592 222.223 400.167 224.217C401.741 226.211 403.735 227.906 406.036 229.203L481.45 271.878C485.425 274.127 490.13 275.087 494.791 274.601C499.452 274.116 503.79 272.212 507.093 269.205L580.232 190.538C580.385 190.361 580.568 190.207 580.773 190.081C586.336 186.104 601.144 174.139 602.444 166.576C603.744 159.012 594.137 151.351 588.178 147.569C586.59 149.112 585.263 150.859 584.241 152.753C583.946 153.296 583.489 153.755 582.921 154.078C582.353 154.4 581.697 154.573 581.026 154.578C580.367 154.583 579.719 154.424 579.152 154.119C578.585 153.815 578.122 153.376 577.812 152.85C577.209 151.851 576.546 150.882 575.825 149.949C573.206 151.942 570.843 154.194 568.782 156.665C565.813 162.377 563.396 168.311 561.559 174.4C561.384 175 561.005 175.536 560.475 175.932L490.985 230.67C490.401 231.122 489.674 231.394 488.907 231.447C488.141 231.499 487.375 231.33 486.723 230.963L427.706 197.612C424.501 195.794 420.801 194.813 417.016 194.776Z" fill="#093F68"/>
<path d="M239.533 283.875L179.072 408.673L255.605 437.982L336.184 337.896L239.533 283.875Z" fill="#093F68"/>
<path d="M255.605 441.242C255.12 441.25 254.639 441.161 254.197 440.981L177.663 411.64C177.223 411.472 176.824 411.228 176.489 410.92C176.154 410.612 175.89 410.247 175.713 409.847C175.529 409.449 175.434 409.023 175.434 408.592C175.434 408.161 175.529 407.734 175.713 407.337L236.174 282.539C236.379 282.106 236.686 281.72 237.072 281.404C237.459 281.089 237.916 280.853 238.413 280.713C238.907 280.578 239.426 280.541 239.937 280.603C240.448 280.665 240.938 280.824 241.375 281.071L338.026 335.092C338.442 335.327 338.801 335.636 339.08 336C339.36 336.365 339.554 336.777 339.651 337.211C339.748 337.65 339.743 338.103 339.638 338.54C339.532 338.978 339.328 339.391 339.037 339.754L258.531 439.905C258.195 440.321 257.754 440.658 257.246 440.89C256.737 441.123 256.175 441.243 255.605 441.242ZM183.767 406.978L254.305 433.972L330.911 338.808L241.194 288.635L183.767 406.978Z" fill="#093F68"/>
<path d="M373.538 161.472L429.301 197.575C432.604 199.713 435.408 202.418 437.553 205.534C439.698 208.651 441.142 212.118 441.803 215.739C442.463 219.359 442.327 223.061 441.402 226.634C440.477 230.207 438.782 233.58 436.413 236.562L360.21 332.461L254.143 263.791L330.325 167.918C332.692 164.932 335.688 162.396 339.141 160.456C342.594 158.516 346.438 157.209 350.451 156.61C354.465 156.012 358.569 156.133 362.531 156.967C366.492 157.801 370.233 159.332 373.538 161.472Z" fill="#68E1FD"/>
<path d="M360.094 335.679C359.341 335.674 358.609 335.458 357.999 335.059L251.994 266.434C251.221 265.93 250.7 265.171 250.544 264.322C250.388 263.473 250.611 262.603 251.163 261.902L327.371 166.021C330.013 162.69 333.357 159.862 337.211 157.698C341.065 155.534 345.354 154.078 349.833 153.412C354.311 152.746 358.891 152.883 363.31 153.816C367.73 154.749 371.902 156.459 375.589 158.849L431.282 194.906C434.973 197.291 438.106 200.309 440.503 203.788C442.9 207.267 444.514 211.138 445.252 215.181C445.99 219.223 445.838 223.357 444.804 227.346C443.77 231.335 441.876 235.101 439.228 238.429L363.02 334.342C362.683 334.757 362.243 335.095 361.735 335.327C361.226 335.56 360.664 335.68 360.094 335.679ZM259.145 263.043L359.263 327.887L433.377 234.647C437.592 229.321 439.297 222.704 438.119 216.246C436.941 209.787 432.976 204.013 427.092 200.188L371.579 164.13C368.661 162.238 365.358 160.884 361.859 160.145C358.36 159.406 354.734 159.297 351.189 159.824C347.643 160.351 344.247 161.503 341.195 163.215C338.144 164.928 335.496 167.166 333.403 169.803L259.145 263.043Z" fill="#093F68"/>
<path d="M443.815 3.73184C452.605 4.39898 461.18 6.54406 469.097 10.0565C477.982 14.3925 486.687 19.4457 496.583 21.2387C506.479 23.0318 518.254 20.6519 523.491 12.9254C529.92 25.5421 527.572 40.3431 522.985 53.5793C521.755 57.4457 520.047 61.1749 517.892 64.6964C515.66 67.8628 513.148 70.8611 510.38 73.6617C506.371 77.8999 502.037 81.486 500.339 86.7023C498.139 92.907 495.347 98.9281 491.996 104.698C484.772 117.739 476.935 130.323 469.422 143.135L339.398 109.295C341.493 97.7867 344.094 86.4741 347.019 74.9332C349.379 67.7498 350.69 60.3191 350.92 52.8295C350.204 44.4871 352.47 36.1573 357.385 29.0631C362.803 21.8908 373.277 17.2288 382.342 20.1629C390.796 12.0015 401.921 6.49518 414.09 4.44905C423.912 2.95658 433.918 2.71517 443.815 3.73184Z" fill="#725858"/>
<path d="M469.675 146.558C469.34 146.601 468.999 146.601 468.664 146.558L338.64 112.718C337.792 112.497 337.063 112.004 336.591 111.331C336.118 110.659 335.935 109.853 336.076 109.067C338.098 97.9823 340.626 86.6696 343.733 74.4767L344.599 71.2166C346.473 65.331 347.469 59.2461 347.561 53.1228C346.823 44.0794 349.358 35.064 354.785 27.433C360.311 20.1629 371.038 14.3925 381.656 16.7071C390.436 8.818 401.654 3.51064 413.837 1.48233C423.889 -0.0987381 434.136 -0.416903 444.284 0.536884C453.607 1.23122 462.699 3.50984 471.084 7.25275L475.707 9.56744C482.394 13.416 489.705 16.2979 497.378 18.109C505.251 19.5435 515.87 18.109 520.493 11.2627C520.84 10.7585 521.333 10.3493 521.918 10.0793C522.504 9.80925 523.16 9.68864 523.816 9.73046C524.467 9.77365 525.093 9.97531 525.627 10.314C526.161 10.6527 526.584 11.1158 526.85 11.654C532.665 23.0644 532.556 37.1482 526.525 54.6225C525.244 58.6853 523.476 62.6099 521.251 66.3264C518.938 69.659 516.303 72.8008 513.378 75.7156C512.655 76.498 511.897 77.2478 511.175 77.9977C507.96 80.7085 505.487 84.0568 503.951 87.7781C501.771 93.9951 498.991 100.028 495.644 105.807L495.391 106.263C490.732 114.902 485.603 123.411 480.619 131.659C477.982 136.028 475.346 140.397 472.745 144.7C472.466 145.231 472.034 145.683 471.494 146.011C470.953 146.338 470.325 146.527 469.675 146.558ZM343.841 107.143L467.869 139.419C470 135.8 472.204 132.148 474.371 128.53C479.319 120.347 484.411 111.903 488.818 103.427L489.07 102.938C492.231 97.5019 494.865 91.8299 496.944 85.985C498.73 81.3407 501.685 77.1336 505.576 73.6943L507.707 71.5426C510.383 68.9 512.8 66.0531 514.931 63.0337C516.967 59.7328 518.579 56.2326 519.734 52.6012C524.357 39.2673 525.224 28.2806 522.407 19.2175C518.708 21.7841 514.427 23.5824 509.87 24.4841C505.312 25.3857 500.59 25.3685 496.041 24.4337C487.574 22.5068 479.494 19.3936 472.095 15.2075L467.544 12.9254C460.006 9.57632 451.83 7.55168 443.454 6.95935C433.98 6.08735 424.419 6.37247 415.029 7.80699C403.621 9.72758 393.193 14.891 385.268 22.5428C384.786 23.01 384.164 23.3393 383.477 23.49C382.79 23.6406 382.069 23.606 381.403 23.3904C373.638 20.8801 364.898 25.4769 360.636 31.0517C356.156 37.5827 354.117 45.2394 354.821 52.8946C354.789 59.6415 353.745 66.3533 351.715 72.8467L350.884 76.1068C348.067 86.8326 345.755 97.102 343.841 107.143Z" fill="#093F68"/>
<path d="M392.946 175.345L417.03 181.615L413.026 194.145C412.242 196.596 410.413 198.665 407.939 199.898C405.465 201.131 402.55 201.427 399.835 200.72L396.365 199.817C393.65 199.11 391.357 197.458 389.991 195.225C388.625 192.992 388.297 190.361 389.081 187.91L393.085 175.381L392.946 175.345Z" fill="#FFC9B0"/>
<path d="M402.821 204.361C401.476 204.361 400.138 204.185 398.848 203.839L395.237 202.893C393.434 202.428 391.751 201.646 390.284 200.592C388.818 199.539 387.596 198.233 386.69 196.752C385.784 195.271 385.211 193.642 385.004 191.96C384.797 190.278 384.961 188.576 385.485 186.951L389.458 174.465C389.587 174.051 389.805 173.664 390.1 173.327C390.396 172.99 390.762 172.708 391.178 172.499C391.595 172.29 392.053 172.157 392.526 172.109C392.999 172.06 393.479 172.096 393.936 172.216L418.027 178.508C418.945 178.74 419.724 179.291 420.194 180.04C420.662 180.794 420.779 181.686 420.519 182.518L416.51 195.037C416.001 196.662 415.138 198.179 413.972 199.5C412.807 200.821 411.361 201.919 409.72 202.73C407.607 203.786 405.235 204.346 402.821 204.361ZM395.417 179.388L392.419 188.777C391.922 190.406 392.144 192.147 393.041 193.631C393.937 195.115 395.436 196.226 397.223 196.732L400.835 197.677C401.72 197.92 402.652 197.997 403.571 197.901C404.491 197.806 405.379 197.541 406.18 197.123C407.797 196.299 408.999 194.945 409.539 193.341L412.537 183.952L395.417 179.388Z" fill="#093F68"/>
<path d="M502.729 145.191C505.941 135.14 500.466 124.889 490.499 122.294C480.533 119.699 469.85 125.743 466.638 135.795C463.426 145.846 468.902 156.098 478.868 158.693C488.834 161.287 499.517 155.243 502.729 145.191Z" fill="#FFC9B0"/>
<path d="M483.545 162.566C481.615 162.567 479.694 162.326 477.838 161.848C465.991 158.588 459.382 146.656 463.138 134.92C464.809 129.414 468.666 124.657 473.973 121.553C476.51 120.051 479.377 119.061 482.377 118.652C485.377 118.242 488.44 118.423 491.356 119.182C494.271 119.94 496.971 121.259 499.27 123.047C501.568 124.834 503.412 127.05 504.673 129.54C507.365 134.722 507.853 140.616 506.046 146.102C504.749 150.662 501.861 154.725 497.809 157.689C493.757 160.654 488.756 162.364 483.545 162.566ZM485.784 124.976C483.007 125.001 480.293 125.724 477.946 127.063C474.079 129.339 471.276 132.82 470.073 136.843C467.436 145.156 471.806 153.633 479.86 155.719C487.915 157.806 496.583 152.753 499.256 144.439C500.573 140.492 500.239 136.246 498.317 132.507C497.465 130.859 496.242 129.39 494.724 128.194C493.206 126.998 491.428 126.102 489.504 125.563C488.311 125.221 487.071 125.035 485.82 125.009L485.784 124.976Z" fill="#093F68"/>
<path d="M402.605 183.43C362.875 173.096 341.638 119.727 352.87 84.5505L365.656 92.7335L385.485 51.3624C385.485 51.3624 432.004 63.0662 452.953 68.6085C491.454 78.3889 509.441 73.2705 509.441 73.2705L489.107 136.908C477.838 172.085 442.226 193.732 402.605 183.43Z" fill="#FFC9B0"/>
<path d="M422.542 189.266C415.454 189.245 408.403 188.334 401.593 186.56C360.058 175.737 337.809 119.988 349.403 83.6377C349.561 83.1358 349.85 82.6755 350.246 82.2954C350.642 81.9153 351.133 81.6266 351.679 81.4534C352.224 81.2816 352.807 81.2305 353.379 81.3042C353.951 81.378 354.495 81.5745 354.965 81.8772L364.103 87.7455L382.162 50.0583C382.506 49.3304 383.132 48.7405 383.923 48.3985C384.714 48.0566 385.616 47.9861 386.46 48.2001C386.46 48.2001 433.016 60.0669 453.964 65.4788C490.624 74.9331 508.141 70.2059 508.357 70.1407C508.98 69.9649 509.643 69.9444 510.277 70.0815C510.911 70.2185 511.493 70.508 511.959 70.9191C512.426 71.3303 512.761 71.8478 512.928 72.4168C513.095 72.9857 513.088 73.5849 512.908 74.1507L492.574 137.821C482.353 169.738 454.65 189.266 422.542 189.266ZM403.616 180.431C439.734 189.853 474.407 171.238 485.639 136.126L504.348 77.4435C495.897 78.3563 478.669 78.6171 451.978 71.7382C434.244 67.174 398.198 57.9805 387.543 55.4376L368.943 94.0375C368.726 94.48 368.403 94.8734 367.997 95.1892C367.591 95.505 367.112 95.7352 366.595 95.8632C366.083 96.0035 365.54 96.0323 365.013 95.9473C364.486 95.8624 363.988 95.666 363.561 95.3742L355.074 89.9624C345.575 129.084 373.132 172.379 403.616 180.301V180.431Z" fill="#093F68"/>
<path d="M414.18 108.747C415.219 105.495 413.141 102.098 409.538 101.159C405.935 100.221 402.171 102.097 401.132 105.35C400.092 108.602 402.171 111.999 405.774 112.937C409.377 113.876 413.141 111.999 414.18 108.747Z" fill="#093F68"/>
<path d="M470.614 129.573C474.364 129.573 477.404 126.829 477.404 123.444C477.404 120.059 474.364 117.315 470.614 117.315C466.864 117.315 463.824 120.059 463.824 123.444C463.824 126.829 466.864 129.573 470.614 129.573Z" fill="#093F68"/>
<path d="M442.876 134.561H442.695C438.413 134.172 434.249 133.066 430.415 131.301C429.955 131.133 429.537 130.881 429.189 130.562C428.842 130.242 428.57 129.861 428.393 129.442C428.216 129.023 428.136 128.576 428.159 128.128C428.181 127.68 428.306 127.242 428.525 126.839C428.744 126.437 429.053 126.08 429.432 125.79C429.811 125.5 430.252 125.284 430.728 125.155C431.203 125.026 431.703 124.987 432.196 125.041C432.689 125.094 433.165 125.239 433.593 125.465C436.101 126.538 438.745 127.327 441.467 127.813C441.671 123.225 441.209 118.633 440.095 114.153C439.914 113.31 440.108 112.437 440.635 111.723C441.163 111.009 441.981 110.511 442.912 110.338C443.377 110.253 443.856 110.25 444.321 110.332C444.787 110.413 445.231 110.577 445.626 110.813C446.022 111.049 446.363 111.353 446.628 111.708C446.894 112.063 447.079 112.462 447.174 112.881C448.474 118.782 450.208 129.182 446.849 132.801C446.372 133.341 445.769 133.78 445.082 134.084C444.395 134.389 443.641 134.552 442.876 134.561Z" fill="#093F68"/>
<path d="M427.815 100.395C426.962 100.399 426.116 100.255 425.323 99.971L394.839 89.8972C393.909 89.6308 393.048 89.1969 392.308 88.6216C391.568 88.0464 390.966 87.3419 390.536 86.5505C390.107 85.7591 389.859 84.8974 389.809 84.0173C389.759 83.1373 389.907 82.2572 390.244 81.4302C390.581 80.6032 391.101 79.8464 391.771 79.2057C392.441 78.5649 393.248 78.0535 394.144 77.7022C395.039 77.3509 396.004 77.1671 396.98 77.1618C397.956 77.1566 398.924 77.33 399.824 77.6717L430.271 87.7455C431.867 88.2684 433.208 89.2823 434.059 90.6089C434.909 91.9356 435.215 93.4903 434.921 95.0001C434.628 96.5099 433.755 97.8782 432.456 98.8647C431.156 99.8513 429.513 100.393 427.815 100.395Z" fill="#093F68"/>
<path d="M484.845 106.491H484.664L452.158 105.774C450.274 105.731 448.483 105.026 447.167 103.808C445.851 102.589 445.115 100.955 445.115 99.2538C445.115 97.5245 445.876 95.866 447.231 94.6432C448.586 93.4204 450.423 92.7335 452.339 92.7335L484.845 93.4507C486.76 93.4507 488.598 94.1377 489.952 95.3605C491.307 96.5832 492.068 98.2417 492.068 99.971C492.068 101.7 491.307 103.359 489.952 104.582C488.598 105.804 486.76 106.491 484.845 106.491Z" fill="#093F68"/>
<path d="M365.656 92.7335C365.656 92.7335 351.823 77.4761 338.134 88.9191C324.446 100.362 325.782 126.345 356.518 126.9" fill="#FFC9B0"/>
<path d="M356.518 130.16C342.36 129.899 331.958 124.324 327.985 114.837C326.083 109.951 325.805 104.669 327.184 99.641C328.564 94.6135 331.541 90.0595 335.751 86.5392C337.653 84.7984 339.945 83.4442 342.474 82.5671C345.003 81.6901 347.71 81.3104 350.414 81.4534C360.636 82.0728 368.184 90.321 368.473 90.6796C369.072 91.3471 369.355 92.2009 369.26 93.0555C369.165 93.9101 368.701 94.6965 367.968 95.2438C367.6 95.5164 367.177 95.721 366.722 95.8456C366.267 95.9703 365.789 96.0126 365.316 95.9702C364.843 95.9278 364.384 95.8015 363.965 95.5985C363.546 95.3955 363.176 95.1199 362.875 94.7874C359.562 91.2024 354.961 88.7798 349.873 87.9411C348.162 87.8528 346.451 88.0984 344.856 88.661C343.26 89.2236 341.818 90.09 340.626 91.2012C337.487 93.8457 335.255 97.2494 334.199 101.007C333.142 104.764 333.305 108.716 334.667 112.392C337.629 119.369 345.502 123.314 356.627 123.509C357.585 123.509 358.503 123.853 359.181 124.464C359.858 125.075 360.238 125.905 360.238 126.769C360.238 127.634 359.858 128.463 359.181 129.075C358.503 129.686 357.585 130.029 356.627 130.029L356.518 130.16Z" fill="#093F68"/>
<path d="M423.733 160.283C423.446 160.315 423.154 160.315 422.867 160.283C410.55 157.545 388.049 146.33 391.083 123.509C391.198 122.645 391.689 121.856 392.447 121.318C393.206 120.78 394.17 120.536 395.128 120.64C396.086 120.744 396.959 121.187 397.555 121.872C398.151 122.556 398.421 123.427 398.306 124.292C395.273 147.113 423.589 153.633 424.636 153.959C425.594 154.063 426.467 154.506 427.063 155.19C427.659 155.875 427.93 156.746 427.815 157.61C427.7 158.475 427.209 159.263 426.45 159.801C425.692 160.339 424.727 160.583 423.77 160.479L423.733 160.283Z" fill="#093F68"/>
<path d="M254.088 263.793C254.088 263.793 215.876 306.892 223.497 334.635C231.118 362.379 374.866 417.769 374.866 417.769L434.28 372.583L254.088 263.793Z" fill="#093F68"/>
<path d="M374.866 421.029C374.382 421.028 373.903 420.94 373.458 420.768C358.577 415.161 227.831 363.911 219.885 335.418C211.939 306.924 249.574 263.695 251.163 261.771C251.727 261.129 252.538 260.702 253.435 260.575C254.331 260.448 255.248 260.631 256.003 261.087L436.158 369.845C436.63 370.125 437.023 370.5 437.306 370.942C437.588 371.384 437.752 371.879 437.783 372.388C437.812 372.894 437.709 373.399 437.483 373.863C437.257 374.327 436.915 374.737 436.483 375.061L377.069 420.247C376.453 420.723 375.677 420.999 374.866 421.029ZM254.919 268.227C247.298 277.453 220.86 311.554 227 333.853C232.815 354.946 333.295 398.045 374.252 413.987L428.429 372.877L254.919 268.227Z" fill="#093F68"/>
<path d="M427.309 404.207L321.015 463.378L277.89 487.405C274.495 483.95 259.831 461.976 252.608 455.065L292.843 429.179L392.745 364.89C404.338 357.88 426.298 362.118 434.099 372.583C437.832 377.593 439.213 383.734 437.94 389.661C436.668 395.588 432.845 400.818 427.309 404.207Z" fill="#FFC9B0"/>
<path d="M277.962 490.666C277.458 490.664 276.96 490.568 276.5 490.383C276.039 490.198 275.627 489.927 275.289 489.59C272.174 485.945 269.269 482.159 266.585 478.244C261.542 470.969 256.043 463.959 250.115 457.249C249.77 456.908 249.509 456.505 249.35 456.066C249.191 455.627 249.137 455.162 249.191 454.703C249.246 454.244 249.408 453.8 249.667 453.402C249.926 453.003 250.276 452.659 250.693 452.392L390.83 362.249C404.049 354.229 428.32 358.728 437.278 370.758C441.534 376.501 443.091 383.534 441.608 390.312C440.125 397.091 435.723 403.061 429.368 406.913L279.876 490.144C279.305 490.477 278.642 490.658 277.962 490.666ZM258.061 455.684C262.323 460.607 267.958 468.268 272.508 474.658C274.892 477.918 277.168 481.016 278.757 483.069L425.25 401.566C430.008 398.676 433.302 394.203 434.413 389.125C435.523 384.047 434.358 378.779 431.174 374.474C424.42 365.411 404.699 361.727 394.839 367.726L258.061 455.684Z" fill="#093F68"/>
<path d="M321.015 463.378L277.89 487.405C274.495 483.95 259.831 461.976 252.608 455.065L292.843 429.179C302.233 440.394 312.708 453.109 321.015 463.378Z" fill="#F56132"/>
<path d="M277.962 490.666C277.458 490.665 276.96 490.568 276.5 490.383C276.039 490.198 275.627 489.927 275.289 489.59C272.174 485.945 269.269 482.159 266.585 478.245C261.542 470.969 256.043 463.959 250.115 457.249C249.77 456.908 249.509 456.505 249.35 456.066C249.191 455.627 249.137 455.162 249.191 454.703C249.246 454.244 249.408 453.8 249.667 453.402C249.926 453.003 250.276 452.659 250.693 452.392L290.928 426.539C291.698 426.047 292.651 425.847 293.582 425.981C294.514 426.115 295.35 426.573 295.913 427.256L299.524 431.82C307.759 441.796 316.572 452.555 323.868 461.422C324.16 461.791 324.368 462.209 324.479 462.651C324.591 463.093 324.604 463.551 324.518 463.998C324.421 464.441 324.224 464.861 323.938 465.231C323.652 465.601 323.283 465.914 322.856 466.149L279.876 490.144C279.305 490.477 278.642 490.658 277.962 490.666ZM258.061 455.684C262.323 460.607 267.958 468.268 272.508 474.658C274.892 477.918 277.168 481.016 278.757 483.069L315.741 462.465C308.987 454.185 301.294 444.633 293.782 435.7L292.12 433.711L258.061 455.684Z" fill="#093F68"/>
<path d="M509.66 68.491L358.228 32.7081C353.886 31.6821 349.445 34.0275 348.309 37.9466L345.555 47.4397C344.419 51.3588 347.017 55.3676 351.359 56.3935L502.79 92.1765C507.132 93.2025 511.573 90.8571 512.71 86.938L515.463 77.4449C516.6 73.5258 514.001 69.517 509.66 68.491Z" fill="#68E1FD"/>
<path d="M504.89 95.6676C503.88 95.6716 502.873 95.5621 501.892 95.3416L350.45 59.4801C348.947 59.1281 347.535 58.5102 346.298 57.6621C345.061 56.8141 344.022 55.7528 343.243 54.5398C342.463 53.3268 341.959 51.9862 341.757 50.5957C341.556 49.2052 341.663 47.7926 342.071 46.4396L344.852 36.9852C345.242 35.6278 345.927 34.3538 346.866 33.237C347.806 32.1202 348.982 31.1829 350.325 30.4793C351.669 29.7758 353.154 29.32 354.695 29.1385C356.235 28.9569 357.8 29.0532 359.299 29.4217L510.741 65.2831C512.247 65.6312 513.662 66.2467 514.902 67.0938C516.141 67.9408 517.182 69.0024 517.962 70.2165C518.742 71.4306 519.246 72.7728 519.445 74.1648C519.644 75.5568 519.534 76.9706 519.12 78.3237L516.375 87.8433C515.694 90.113 514.196 92.1137 512.117 93.5302C510.037 94.9468 507.495 95.6987 504.89 95.6676ZM356.193 35.7137C355.392 35.6999 354.603 35.8922 353.918 36.2679C352.889 36.816 352.137 37.705 351.823 38.7456L349.078 48.2326C348.78 49.2785 348.95 50.3884 349.552 51.3219C350.153 52.2555 351.138 52.9376 352.293 53.2206L503.734 89.0821C504.335 89.2479 504.968 89.2959 505.591 89.2228C506.214 89.1497 506.812 88.9572 507.346 88.6583C508.367 88.1091 509.106 87.2189 509.405 86.1806L512.186 76.6936C512.484 75.6477 512.314 74.5379 511.712 73.6043C511.111 72.6708 510.126 71.9887 508.971 71.7056L357.53 35.8441C357.094 35.7392 356.643 35.6952 356.193 35.7137Z" fill="#093F68"/>
<path d="M252.788 455.065L226.422 469.736L285.077 535.786C285.309 536.069 285.634 536.278 286.006 536.383C286.378 536.489 286.777 536.485 287.147 536.373C287.516 536.261 287.836 536.045 288.061 535.758C288.287 535.471 288.405 535.127 288.4 534.775L282.188 485.156L252.788 455.065Z" fill="#68E1FD"/>
<path d="M286.522 539.633C285.693 539.635 284.875 539.466 284.129 539.139C283.384 538.811 282.732 538.333 282.224 537.742L223.497 471.757C223.175 471.395 222.943 470.976 222.815 470.527C222.688 470.078 222.668 469.609 222.756 469.153C222.845 468.696 223.041 468.262 223.331 467.879C223.62 467.496 223.997 467.173 224.436 466.932L250.802 452.294C251.525 451.895 252.381 451.738 253.22 451.851C254.058 451.964 254.826 452.34 255.389 452.913L284.788 482.939C285.291 483.433 285.596 484.064 285.655 484.732L292.12 534.319V534.71C292.132 535.73 291.79 536.728 291.143 537.564C290.495 538.4 289.574 539.032 288.509 539.372C287.865 539.551 287.195 539.639 286.522 539.633ZM231.804 470.583L284.102 529.461L278.721 486.493L252.102 459.303L231.804 470.583Z" fill="#093F68"/>
<path d="M370.099 165.108C339.29 140.918 303.534 111.968 277.673 108.708C254.666 105.904 194.855 123.966 162.096 136.452C162.096 136.452 125.256 142.32 120.236 148.743C115.216 155.165 126.34 180.203 131.324 183.267C136.308 186.332 154.006 177.758 154.006 177.758C154.006 177.758 159.568 184.278 163.433 182.713C167.297 181.148 172.173 165.206 172.173 165.206C209.663 156.437 260.12 153.926 270.703 153.861C283.308 157.675 305.303 174.498 337.268 199.503C342.38 202.967 348.756 204.554 355.113 203.945C361.469 203.336 367.334 200.576 371.527 196.221C375.721 191.866 377.93 186.239 377.712 180.472C377.494 174.706 374.864 169.228 370.351 165.141L370.099 165.108Z" fill="#FFC9B0"/>
<path d="M353.52 208.305C346.547 208.265 339.825 205.949 334.595 201.785C303.353 177.269 281.863 160.805 269.8 156.86C259.939 157.023 212.011 159.273 174.81 167.651C172.354 175.15 168.814 183.659 164.697 185.419C160.579 187.18 155.523 184.083 152.85 181.572C146.06 184.637 134.358 189.038 128.976 185.713C123.595 182.387 117.563 168.532 115.685 159.077C114.529 153.307 114.963 149.297 116.985 146.624C122.367 139.745 151.333 134.561 160.76 133.061C193.447 120.673 253.799 102.286 277.926 105.22C303.642 108.48 337.52 135.017 367.426 158.556L372.446 162.5C376.58 165.777 379.592 170.05 381.128 174.819C382.664 179.587 382.66 184.652 381.116 189.419C379.572 194.185 376.552 198.455 372.413 201.725C368.273 204.996 363.185 207.132 357.746 207.882C356.352 208.12 354.939 208.262 353.52 208.305ZM270.45 150.503C270.83 150.507 271.207 150.562 271.569 150.666C284.824 154.676 306.026 170.846 339.398 197.025C341.472 199.012 343.984 200.586 346.772 201.644C349.56 202.702 352.563 203.222 355.587 203.169C358.611 203.117 361.59 202.494 364.331 201.34C367.072 200.186 369.515 198.527 371.503 196.47C373.491 194.412 374.98 192.002 375.874 189.394C376.768 186.786 377.048 184.038 376.694 181.326C376.341 178.615 375.362 176 373.822 173.651C372.282 171.301 370.214 169.269 367.751 167.684L362.73 163.739C333.583 140.918 300.572 114.837 276.987 111.936C255.316 109.295 197.528 126.443 163.216 139.451C162.971 139.547 162.717 139.623 162.458 139.679C145.446 142.385 125.509 147.341 122.945 150.634C119.586 154.937 129.049 177.921 133.094 180.594C135.044 181.442 144.11 178.736 152.056 174.889C152.815 174.522 153.695 174.413 154.536 174.58C155.377 174.748 156.124 175.181 156.643 175.802C157.933 177.459 159.658 178.803 161.663 179.714C164.744 174.91 167.031 169.726 168.453 164.326C168.622 163.776 168.948 163.276 169.398 162.876C169.848 162.476 170.406 162.189 171.017 162.044C209.952 152.948 261.817 150.666 270.414 150.601L270.45 150.503Z" fill="#093F68"/>
<path d="M586.733 175.117H586.444C581.026 174.954 576.223 170.846 572.177 162.957C571.977 162.567 571.864 162.146 571.845 161.717C571.825 161.288 571.9 160.86 572.064 160.457C572.229 160.054 572.48 159.684 572.803 159.369C573.126 159.054 573.515 158.8 573.947 158.621C574.815 158.266 575.802 158.235 576.695 158.534C577.588 158.833 578.314 159.438 578.715 160.218C581.857 166.315 584.891 168.532 586.661 168.597C587.094 168.55 587.512 168.425 587.891 168.229C588.269 168.033 588.6 167.77 588.864 167.456C586.293 162.291 582.763 157.56 578.426 153.47C578.088 153.152 577.825 152.777 577.652 152.365C577.48 151.953 577.402 151.514 577.422 151.075C577.442 150.635 577.561 150.204 577.771 149.806C577.982 149.409 578.279 149.055 578.645 148.764C579.011 148.473 579.438 148.252 579.901 148.115C580.364 147.977 580.853 147.926 581.339 147.963C581.825 148.001 582.297 148.127 582.728 148.334C583.158 148.54 583.538 148.824 583.843 149.166C593.776 159.436 597.677 166.51 595.437 170.227C594.604 171.67 593.357 172.886 591.826 173.746C590.295 174.606 588.536 175.08 586.733 175.117Z" fill="#093F68"/>
<path d="M288.906 382.559C288.182 382.551 287.477 382.347 286.883 381.973C285.475 381.125 252.174 360.554 238.522 343.536C224.327 325.898 226.964 310.608 227.108 309.956C227.184 309.528 227.353 309.118 227.604 308.748C227.856 308.379 228.186 308.058 228.575 307.804C228.964 307.55 229.405 307.367 229.872 307.266C230.339 307.166 230.824 307.149 231.298 307.218C231.772 307.286 232.227 307.438 232.636 307.666C233.045 307.893 233.401 308.19 233.683 308.541C233.964 308.893 234.167 309.29 234.278 309.712C234.39 310.134 234.408 310.571 234.332 311C234.332 311.228 232.201 324.464 244.481 339.721C257.411 355.794 290.748 376.398 291.073 376.593C291.719 376.985 292.207 377.554 292.465 378.217C292.724 378.879 292.738 379.599 292.507 380.269C292.276 380.939 291.811 381.525 291.182 381.937C290.552 382.35 289.792 382.568 289.014 382.559H288.906Z" fill="white"/>
<path d="M178.169 225.519H23.6212C22.6633 225.519 21.7446 225.175 21.0673 224.564C20.3899 223.953 20.0094 223.123 20.0094 222.259C20.0094 221.394 20.3899 220.565 21.0673 219.953C21.7446 219.342 22.6633 218.999 23.6212 218.999H178.169C179.127 218.999 180.046 219.342 180.723 219.953C181.4 220.565 181.781 221.394 181.781 222.259C181.781 223.123 181.4 223.953 180.723 224.564C180.046 225.175 179.127 225.519 178.169 225.519Z" fill="#DFEAEF"/>
<path d="M182.25 294.862H87.3328C86.3749 294.862 85.4562 294.518 84.7789 293.907C84.1015 293.296 83.721 292.466 83.721 291.602C83.721 290.737 84.1015 289.908 84.7789 289.296C85.4562 288.685 86.3749 288.342 87.3328 288.342H182.25C183.208 288.342 184.127 288.685 184.804 289.296C185.481 289.908 185.862 290.737 185.862 291.602C185.862 292.466 185.481 293.296 184.804 293.907C184.127 294.518 183.208 294.862 182.25 294.862Z" fill="#DFEAEF"/>
<path d="M87.3327 364.205H3.61177C2.65387 364.205 1.7352 363.861 1.05786 363.25C0.380522 362.639 0 361.809 0 360.945C0 360.08 0.380522 359.251 1.05786 358.64C1.7352 358.028 2.65387 357.685 3.61177 357.685H87.3327C88.2906 357.685 89.2093 358.028 89.8866 358.64C90.564 359.251 90.9445 360.08 90.9445 360.945C90.9445 361.809 90.564 362.639 89.8866 363.25C89.2093 363.861 88.2906 364.205 87.3327 364.205Z" fill="#DFEAEF"/>
<path d="M243.217 86.8326H102.358C101.4 86.8326 100.481 86.4892 99.8037 85.8778C99.1264 85.2664 98.7458 84.4371 98.7458 83.5725C98.7458 82.7079 99.1264 81.8786 99.8037 81.2672C100.481 80.6558 101.4 80.3124 102.358 80.3124H243.217C244.175 80.3124 245.093 80.6558 245.771 81.2672C246.448 81.8786 246.829 82.7079 246.829 83.5725C246.829 84.4371 246.448 85.2664 245.771 85.8778C245.093 86.4892 244.175 86.8326 243.217 86.8326Z" fill="#DFEAEF"/>
</svg>
